<svg xmlns="http://www.w3.org/2000/svg" viewBox="0 0 24 24" fill="none" aria-hidden="true">
  <path stroke="currentColor" stroke-width="1.85" stroke-linejoin="round" d="M9.82 2.24 14.18 2.24 13.27 4.71 16.26 5.95 17.36 3.56 20.44 6.64 18.05 7.74 19.29 10.73 21.76 9.82 21.76 14.18 19.29 13.27 18.05 16.26 20.44 17.36 17.36 20.44 16.26 18.05 13.27 19.29 14.18 21.76 9.82 21.76 10.73 19.29 7.74 18.05 6.64 20.44 3.56 17.36 5.95 16.26 4.71 13.27 2.24 14.18 2.24 9.82 4.71 10.73 5.95 7.74 3.56 6.64 6.64 3.56 7.74 5.95 10.73 4.71Z"/>
  <circle cx="12" cy="12" r="3.35" stroke="currentColor" stroke-width="1.85"/>
  <path stroke="currentColor" stroke-width="1.85" stroke-linecap="round" stroke-linejoin="round" d="M9.35 12.05 11.05 13.75 14.75 9.85"/>
</svg>
