<svg xmlns="http://www.w3.org/2000/svg" viewBox="0 0 24 24" fill="currentColor" aria-hidden="true">
  <!-- screwdriver (rear) -->
  <path d="M5.2 7.8 7.5 5.5 9.2 7.2 7.9 8.5 14.1 14.7 12.8 16 6.6 9.8Z"/>
  <path d="M7.8 8.5 13.4 14.1 12.7 14.8 7.1 9.2Z"/>
  <path d="M13.3 13.9 18.7 19.3c.9.9.9 2.3 0 3.2l-.8.8c-.9.9-2.3.9-3.2 0L13.5 18.7Z"/>
  <path d="M16.6 15.9 18 17.3M17.4 15.1 18.8 16.5" stroke="currentColor" stroke-width=".7" fill="none" opacity=".45"/>
  <!-- wrench (front) -->
  <path fill-rule="evenodd" d="M17.05 6.35c.72-.72 1.88-.72 2.6 0 .72.72.72 1.88 0 2.6l-1.35 1.35-1.85-1.85 1.35-1.35ZM6.15 17.25a2.5 2.5 0 1 0 3.54-3.54l8.2-8.2 1.85 1.85-8.2 8.2a2.5 2.5 0 0 0-3.54 3.54Zm3.54-3.54 1.3-1.3 1.85 1.85-1.3 1.3-1.85-1.85ZM14.95 8.45l1.05-1.05c.72-.72 1.88-.72 2.6 0 .72.72.72 1.88 0 2.6l-1.05 1.05-2.6-2.6Z"/>
  <path d="M15.35 7.05c.5-.5 1.3-.5 1.8 0l1.15 1.15c.5.5.5 1.3 0 1.8l-1.15 1.15c-.5.5-1.3.5-1.8 0l-1.15-1.15c-.5-.5-.5-1.3 0-1.8l1.15-1.15Z"/>
</svg>
